:FULLY-SPECIFIED
:FORCE-ALL-JOINTS-BE-3DOF
:DEGREES
714
root -11.6096 13.9336 -38.3047 511.884 -61.235 212.703
lfemur -64.5351 24.8646 -0.600643
ltibia 75.2548 0 0
lfoot -8.24268 -7.74553 0
ltoes -3.65118 0 0
rfemur 8.79954 -10.1589 11.8297
rtibia 41.4278 0 0
rfoot -25.0878 -27.529 0
rtoes -25.9037 0 0
lowerback 12.231 1.42509 8.88762
upperback -1.72036 3.46845 5.7332
thorax -8.59807 1.27816 0.51091
lowerneck -4.5879 4.82836 0.604931
upperneck 4.0559 6.33866 1.29915
head 2.02876 3.20144 0.505793
lclavicle 1.7525e-14 -1.04677e-14 0
lhumerus 62.5112 15.8321 107.331
lradius 11.8527 0 0
lwrist -77.7322 0 0
lhand -33.4276 36.1599 0
lfingers 7.12502 0 0
lthumb -6.62696 66.0354 0
rclavicle 1.7525e-14 -1.04677e-14 0
rhumerus -75.4416 19.0741 -95.5887
rradius 114.787 0 0
rwrist -66.0689 0 0
rhand -8.52497 -40.2538 0
rfingers 7.12502 0 0
rthumb 17.3949 -69.3812 0
715
root -11.6195 13.93 -38.3082 511.897 -61.2671 212.744
lfemur -64.636 24.8859 -0.642055
ltibia 75.3479 0 0
lfoot -8.29416 -7.7452 0
ltoes -3.68288 0 0
rfemur 8.84286 -10.1773 11.8233
rtibia 41.3458 0 0
rfoot -25.0711 -27.5392 0
rtoes -26.1139 0 0
lowerback 12.2068 1.42261 8.89141
upperback -1.72204 3.46262 5.73627
thorax -8.58618 1.27558 0.513799
lowerneck -4.55097 4.83461 0.637778
upperneck 4.03695 6.34731 1.26264
head 2.01827 3.20521 0.487773
lclavicle 1.80445e-14 -1.12338e-14 0
lhumerus 62.522 15.7976 107.255
lradius 11.8581 0 0
lwrist -77.7333 0 0
lhand -33.3975 36.1167 0
lfingers 7.12502 0 0
lthumb -6.59793 65.9931 0
rclavicle 1.80445e-14 -1.12338e-14 0
rhumerus -75.4447 19.071 -95.6068
rradius 114.706 0 0
rwrist -65.8734 0 0
rhand -8.20743 -39.9427 0
rfingers 7.12502 0 0
rthumb 17.7002 -69.0402 0
716
root -11.6293 13.9264 -38.3117 511.91 -61.2991 212.785
lfemur -64.7369 24.9073 -0.683467
ltibia 75.4411 0 0
lfoot -8.34563 -7.74487 0
ltoes -3.71457 0 0
rfemur 8.88618 -10.1958 11.8169
rtibia 41.2638 0 0
rfoot -25.0543 -27.5495 0
rtoes -26.324 0 0
lowerback 12.1825 1.42014 8.89519
upperback -1.72371 3.45678 5.73934
thorax -8.5743 1.27301 0.516687
lowerneck -4.51405 4.84087 0.670625
upperneck 4.018 6.35595 1.22612
head 2.00779 3.20898 0.469753
lclavicle 1.85641e-14 -1.19998e-14 0
lhumerus 62.5328 15.7631 107.178
lradius 11.8635 0 0
lwrist -77.7344 0 0
lhand -33.3674 36.0735 0
lfingers 7.12502 0 0
lthumb -6.56889 65.9508 0
rclavicle 1.85641e-14 -1.19998e-14 0
rhumerus -75.4478 19.0678 -95.6248
rradius 114.625 0 0
rwrist -65.6779 0 0
rhand -7.88989 -39.6316 0
rfingers 7.12502 0 0
rthumb 18.0056 -68.6992 0
717
root -11.6392 13.9228 -38.3152 511.923 -61.3312 212.827
lfemur -64.8377 24.9286 -0.724879
ltibia 75.5342 0 0
lfoot -8.3971 -7.74455 0
ltoes -3.74627 0 0
rfemur 8.92951 -10.2142 11.8106
rtibia 41.1818 0 0
rfoot -25.0376 -27.5598 0
rtoes -26.5342 0 0
lowerback 12.1583 1.41766 8.89898
upperback -1.72538 3.45095 5.74241
thorax -8.56241 1.27044 0.519576
lowerneck -4.47712 4.84713 0.703472
upperneck 3.99905 6.36459 1.1896
head 1.9973 3.21274 0.451733
lclavicle 1.90836e-14 -1.27658e-14 0
lhumerus 62.5436 15.7286 107.102
lradius 11.8689 0 0
lwrist -77.7354 0 0
lhand -33.3373 36.0303 0
lfingers 7.12502 0 0
lthumb -6.53985 65.9084 0
rclavicle 1.90836e-14 -1.27658e-14 0
rhumerus -75.4509 19.0647 -95.6429
rradius 114.544 0 0
rwrist -65.4825 0 0
rhand -7.57235 -39.3206 0
rfingers 7.12502 0 0
rthumb 18.3109 -68.3583 0
